# xmcd
#
# Track frame offsets:
#	150
#	12610
#	26090
#	38155
#	52230
#	65465
#	77240
#	89075
#	103055
#	115065
#	126895
#	139075
#	151995
#	162995
#	174385
#	187935
#	201985
#	214490
#	228305
#	240285
#
# Disc length: 3375 seconds
#
# Revision: 1
# Processed by: cddbd v1.5.1PL0 Copyright (c) Steve Scherf et al.
# Submitted via: audiograbber 1.83.01
#
DISCID=1d0d2d14
DTITLE=Hank Snow - Blue Velvet 
DYEAR=1900
DGENRE=Country
TTITLE0=Blue For Old Hawaii
TTITLE1=My Sad Antonio Mama
TTITLE2=My Little Swiss Maid
TTITLE3=The Blue Velvet Band
TTITLE4=The Hobo's Last Ride
TTITLE5=I'll Ride Back to Lonesome Valley
TTITLE6=There's A Picture Of Antos Bride
TTITLE7=On The Mississppi Shore
TTITLE8=She's A Rose From The Garden Of Prayer
TTITLE9=Wanderin On
TTITLE10=With This Broken Heart Of Mine
TTITLE11=I Know That We'd Meet Again
TTITLE12=My Filipino Rose
TTITLE13=Your Sad Kiss Goodbye
TTITLE14=Little Buddy
TTITLE15=I Stole Old Sammy Morgan's Girl
TTITLE16=Out On The Open Range
TTITLE17=Somewher Alone on Lifes Highway
TTITLE18=My Two Timer Women
TTITLE19=Broken Hearted
EXTD=
EXTT0=
EXTT1=
EXTT2=
EXTT3=
EXTT4=
EXTT5=
EXTT6=
EXTT7=
EXTT8=
EXTT9=
EXTT10=
EXTT11=
EXTT12=
EXTT13=
EXTT14=
EXTT15=
EXTT16=
EXTT17=
EXTT18=
EXTT19=
PLAYORDER=
